<svg width="15" height="15" viewBox="0 0 15 15" fill="none" xmlns="http://www.w3.org/2000/svg">
<path d="M1.44844 2.66162V3.10438L13.5516 3.13837L13.5515 3.13826C13.5903 3.13849 13.6273 3.15382 13.6548 3.18106C13.6825 3.20898 13.6978 3.24664 13.6976 3.28589V4.28517C13.6976 4.32431 13.682 4.36185 13.6544 4.38954C13.6268 4.41724 13.5892 4.4328 13.5501 4.4328L1.44842 4.4003C1.40893 4.40007 1.37117 4.38417 1.34359 4.35601C1.31635 4.32855 1.30091 4.29136 1.30079 4.25268V3.25339C1.30079 3.17191 1.36682 3.10587 1.44842 3.10587V2.66311M1.44842 6.68967V7.13243L13.5515 7.16642H13.5514C13.5905 7.167 13.6275 7.1829 13.6548 7.21071C13.6826 7.23795 13.6985 7.27503 13.6991 7.31405V8.31334V8.31322C13.6991 8.35236 13.6835 8.3899 13.6558 8.41759C13.6282 8.44529 13.5907 8.46085 13.5514 8.46085L1.4483 8.42538C1.40951 8.42526 1.37243 8.40993 1.34496 8.38258C1.31681 8.355 1.30079 8.31723 1.30068 8.27787V7.27858C1.30068 7.1971 1.36671 7.13095 1.44831 7.13095V6.68819M1.44831 10.7162V11.159L13.5514 11.19C13.5907 11.19 13.6282 11.2056 13.6558 11.2332C13.6835 11.2609 13.6991 11.2985 13.6991 11.3376V12.3369C13.6991 12.376 13.6835 12.4136 13.6558 12.4413C13.6282 12.469 13.5907 12.4845 13.5514 12.4845L1.44831 12.4535C1.40882 12.4533 1.37106 12.4374 1.34348 12.4092C1.3159 12.3813 1.30045 12.3437 1.30068 12.3044V11.3051C1.30068 11.2236 1.36671 11.1576 1.44831 11.1576V10.7148M1.44831 2.66172C1.29175 2.66172 1.14148 2.72386 1.03083 2.83464C0.920052 2.9453 0.85791 3.09545 0.85791 3.25212V4.25278C0.85791 4.40934 0.920052 4.55961 1.03083 4.67026C1.14149 4.78104 1.29175 4.84318 1.44831 4.84318L13.5514 4.87717H13.5513C13.708 4.87717 13.8581 4.81491 13.9688 4.70425C14.0796 4.59347 14.1417 4.44333 14.1417 4.28677V3.28748C14.1417 3.13093 14.0796 2.98077 13.9688 2.87C13.8581 2.75934 13.708 2.69708 13.5513 2.69708L1.44831 2.66172ZM1.44831 6.68828C1.29175 6.68828 1.14148 6.75054 1.03083 6.8612C0.920052 6.97198 0.85791 7.12212 0.85791 7.27868V8.27797C0.85791 8.43452 0.920052 8.58468 1.03083 8.69545C1.14149 8.80611 1.29175 8.86836 1.44831 8.86836L13.5514 8.90236L13.5513 8.90224C13.708 8.90224 13.8581 8.8401 13.9688 8.72932C14.0796 8.61866 14.1417 8.46851 14.1417 8.31184V7.31255V7.31267C14.1417 7.156 14.0796 7.00584 13.9688 6.89519C13.8581 6.78441 13.708 6.72227 13.5513 6.72227L1.4482 6.68828H1.44831ZM1.44831 10.7163C1.29175 10.7163 1.14148 10.7786 1.03083 10.8892C0.920052 11 0.85791 11.1502 0.85791 11.3067V12.306C0.85791 12.4626 0.920052 12.6127 1.03083 12.7235C1.14149 12.8341 1.29175 12.8964 1.44831 12.8964L13.5514 12.9304H13.5513C13.708 12.9304 13.8581 12.8681 13.9688 12.7575C14.0796 12.6467 14.1417 12.4965 14.1417 12.34V11.3377C14.1417 11.1812 14.0796 11.031 13.9688 10.9202C13.8581 10.8096 13.708 10.7473 13.5513 10.7473L1.44831 10.7163Z" fill="#F9F3E6"/>
</svg>
