<svg width="60" height="77" viewBox="0 0 60 77" fill="none" xmlns="http://www.w3.org/2000/svg">
<path fill-rule="evenodd" clip-rule="evenodd" d="M30.0585 3.25412L28.4293 1.09739L28.3995 1.12009L28.3311 1.17259C28.2728 1.21745 28.1897 1.28195 28.0834 1.36563C27.8707 1.53298 27.565 1.77716 27.1794 2.09443C26.4086 2.72879 25.3174 3.65656 24.0126 4.84799C21.4063 7.22776 17.93 10.6757 14.4479 14.9538C7.54107 23.4397 0.32666 35.5424 0.32666 49.2557C0.32666 58.361 4.13497 65.258 9.85987 69.818C15.5116 74.3203 22.8953 76.4499 30.0629 76.4499C37.2303 76.4499 44.6141 74.3203 50.266 69.818C55.9904 65.258 59.7991 58.361 59.7991 49.2557C59.7991 35.5424 52.5848 23.4397 45.6778 14.9538C42.1957 10.6757 38.7193 7.22776 36.1131 4.84799C34.8083 3.65656 33.7171 2.72879 32.9462 2.09443C32.5607 1.77716 32.255 1.53298 32.0423 1.36563C31.9359 1.28195 31.8528 1.21745 31.7946 1.17259L31.7262 1.12009L31.7064 1.10499L31.6963 1.09739C30.7297 0.367274 29.396 0.367281 28.4293 1.09739C28.4298 1.09713 28.4325 1.10068 28.6344 1.36827C28.8384 1.63844 29.2454 2.17778 30.0585 3.25412ZM24.4824 29.9683C24.4824 28.7939 25.4344 27.8418 26.6089 27.8418H33.52C34.6944 27.8418 35.6465 28.7939 35.6465 29.9683V38.4254H44.1035C45.278 38.4254 46.23 39.3775 46.23 40.5519V47.4629C46.23 48.6374 45.278 49.5895 44.1035 49.5895H35.6465L35.6462 58.0464C35.6462 59.2212 34.6941 60.1732 33.5197 60.1732H26.6086C25.4342 60.1732 24.4821 59.2212 24.4821 58.0464V49.5895H16.025C14.8506 49.5895 13.8986 48.6374 13.8986 47.4629V40.5519C13.8986 39.3775 14.8506 38.4254 16.025 38.4254H24.4824V29.9683Z" fill="white"/>
</svg>
