<svg width="67" height="59" viewBox="0 0 67 59" fill="none" xmlns="http://www.w3.org/2000/svg">
<path d="M32.6199 55.9001V8.3801M32.6199 55.9001L27.9439 51.224C25.3034 48.5835 21.7237 47.1001 17.9894 47.1001H6.21689C4.27285 47.1001 2.69995 45.5241 2.69995 43.5801V6.6201C2.69995 4.67606 4.27591 3.1001 6.21995 3.1001H19.7478C23.4821 3.1001 27.0634 4.58352 29.7039 7.22403L32.6199 10.1401L35.536 7.22404C38.1765 4.58352 41.7578 3.1001 45.4921 3.1001H60.7799C62.724 3.1001 64.2999 4.67606 64.2999 6.6201V43.5801C64.2999 45.5241 62.724 47.1001 60.7799 47.1001H47.2521C43.5178 47.1001 39.9365 48.5835 37.296 51.224L32.6199 55.9001Z" stroke="white" stroke-width="5" stroke-linecap="round" stroke-linejoin="round"/>
</svg>
