<svg width="151" height="140" viewBox="0 0 151 140" fill="none" xmlns="http://www.w3.org/2000/svg">
<path d="M4.53236 73.0195C4.06577 73.03 3.92911 72.5267 4.20016 72.4406C4.53915 72.3328 30.3375 68.4759 39.0532 67.1956C84.354 60.5407 146.372 54.1357 146.822 54.2505C147.043 54.3072 146.935 54.5774 146.623 54.6236C142.632 55.2193 126.87 57.0729 126.611 57.0995C79.4344 61.9771 4.54972 73.016 4.53236 73.0195Z" fill="black"/>
<path d="M18.3662 96.1691C18.4327 95.523 18.5006 95.3228 18.4727 93.9389C18.3715 88.8639 22.0083 88.6028 30.0151 86.0429C49.8014 79.7163 42.2944 82.5121 62.536 76.9513C62.5518 76.9471 76.4876 73.4114 76.505 73.4072C104.485 66.4654 103.542 65.6681 112.245 72.2256C114.551 73.9623 127.654 85.7811 131.098 89.5737C134.337 93.1423 136.028 94.9028 135.883 96.9496C135.764 98.6415 135.628 100.857 134.815 102.527C134.192 103.806 133.704 104.321 122.032 109.331C119.596 110.377 112.216 113.547 108.973 114.633C94.1108 119.612 61.2948 130.222 45.8716 133.416C40.382 134.553 38.7671 133.819 34.678 128.548C28.5013 120.585 21.544 106.785 19.0034 99.6999C18.7279 98.9306 18.3723 97.1953 18.3662 96.1691ZM102.28 68.3141C102.28 68.368 101.6 68.2672 101.073 68.3393C96.4989 68.9658 53.3635 79.7751 36.5081 84.7689C21.3402 89.2629 18.0076 90.0217 19.7426 94.3645C21.658 99.1609 27.4088 111.448 30.5104 116.433C37.9539 128.398 40.5813 129.653 47.4005 128.353C64.9452 125.008 127.705 105.392 133.793 98.9117C136.663 95.8562 134.874 94.3603 126.574 86.2641C119.967 79.8206 113.111 73.718 111.37 72.4055C108.493 70.2362 105.699 68.3141 102.28 68.3141ZM110.414 111.409C110.403 112.296 111.007 112.106 111.837 111.83C116.373 110.318 117.076 109.876 117.085 109.371C117.108 108.141 116.709 108.37 112.797 109.87C110.685 110.679 110.423 110.665 110.414 111.409H110.414ZM119.197 108.064C119.197 108.722 119.539 108.869 120.007 108.694C120.962 108.336 121.534 108.142 124.829 106.68C125.662 106.31 125.816 105.926 125.708 105.442C125.611 105.004 125.466 104.929 125.003 105.074C124.551 105.216 124.098 105.365 123.664 105.548C119.316 107.38 119.149 107.327 119.197 108.064Z" fill="black"/>
<path d="M122.943 87.5765C124.236 87.6864 124.824 88.0875 127.677 91.1038C128.495 91.9683 129.817 93.1415 130.454 94.832C130.846 95.8715 130.128 96.9964 129.282 97.5221C118.529 104.205 75.4818 117.643 65.2116 120.39C44.8349 125.839 42.0655 129.42 32.8273 114.184C28.6484 107.292 23.6231 96.5092 23.42 96.0395C22.3404 93.5419 22.9044 91.8696 25.8451 90.7272C26.4566 90.4899 29.6986 88.8253 40.3645 86.0323C71.6653 77.8367 98.0971 69.3135 104.17 70.8724C105.289 71.1601 108.219 72.6469 110.408 74.7007C110.555 74.8386 110.557 75.0143 110.631 75.1676C110.648 75.2033 110.586 75.2754 110.553 75.3279C109.396 77.1934 109.112 76.9638 111.599 79.3298C111.615 79.3452 116.918 84.4419 119.909 87.2503C120.466 87.7732 120.789 87.3931 122.943 87.5765ZM120.703 88.3479C118.856 88.3339 118.36 86.8597 111.982 80.8943C108.164 77.3236 108.45 77.038 109.693 75.1599C109.737 75.0941 109.782 75.0479 109.689 74.9744C103.724 70.3082 102.539 70.8591 95.5482 72.404C91.6562 73.2643 87.9257 73.8747 70.677 78.6424C23.8912 91.5749 21.7515 90.7048 24.3155 96.4161C24.3223 96.4308 30.2437 108.444 33.3309 113.505C36.169 118.157 41.0032 124.254 45.608 124.193C53.9084 124.082 119.204 103.686 129.234 96.6394C130.12 96.0171 129.957 95.0385 129.323 94.1915C128.716 93.3809 126.736 91.2319 126.533 91.0226C123.562 87.9685 124.089 88.3724 120.703 88.3479Z" fill="black"/>
<path d="M118.645 82.6298C118.408 82.8678 118.187 83.089 117.645 82.8349C117.236 82.6431 113.056 78.8792 112.678 78.3584C112.377 77.944 112.946 77.482 113.233 77.6703C114.306 78.3745 118.16 81.7205 118.645 82.6298Z" fill="black"/>
<path d="M121.293 84.8647C121.153 85.5472 119.436 85.3449 119.187 84.6071C118.8 83.464 121.529 83.7125 121.293 84.8647Z" fill="black"/>
<path d="M126.729 96.744C126.033 96.7783 125.818 96.3443 124.788 94.9169C124.637 94.7069 124.519 94.4822 124.669 94.2274C124.719 94.1434 124.772 94.042 124.855 93.9958C125.314 93.7361 126.119 93.3259 126.544 93.6339C127.023 93.9811 128.418 95.5099 128.074 95.9705C127.746 96.4087 127.302 96.6782 126.73 96.744H126.729ZM127.514 95.701C127.466 95.5442 127.562 95.6723 127.036 94.9877C126.912 94.826 126.822 94.9646 125.98 95.4392C125.877 95.4973 125.894 95.4784 126.347 96.135C126.496 96.352 126.591 96.3373 127.374 95.8851C127.442 95.8459 127.475 95.7535 127.514 95.701Z" fill="black"/>
<path d="M124.986 91.5443C125.516 91.5261 125.953 92.1505 125.754 92.3241C125.591 92.4662 124.223 93.029 124.037 93.1018C123.765 93.2089 123.587 93.3139 123.26 92.819C123.1 92.5782 123.11 92.3857 123.539 92.1876C124.976 91.5247 124.767 91.6192 124.986 91.5443Z" fill="black"/>
<path d="M106.843 74.5393C107.019 74.9313 106.288 75.2659 105.802 75.3499C104.361 75.5991 104.457 74.2376 105.907 74.2187C106.372 74.2124 106.68 74.1774 106.843 74.5393Z" fill="black"/>
<path d="M107.402 75.1991C107.679 75.1991 107.855 75.1634 107.952 75.4399C108.064 75.7584 108.064 75.7367 107.847 75.9544C107.573 76.2302 107.213 76.3485 106.821 76.3835C105.897 76.4668 105.895 75.0766 107.402 75.1991Z" fill="black"/>
<path d="M122.261 91.6164C121.948 91.2531 122.101 91.2223 123.423 90.677C123.554 90.6231 123.831 90.8373 123.914 90.9269C124.284 91.3315 123.883 91.4603 123.01 91.8754C122.731 92.0084 122.466 91.8544 122.261 91.6164Z" fill="black"/>
<path d="M122.847 90.1997C122.651 90.4377 122.848 90.4069 121.832 90.8458C121.711 90.8983 121.545 90.7457 121.467 90.668C121.174 90.3754 121.179 90.2977 121.538 90.0786C121.737 89.9575 121.948 89.8469 122.168 89.7657C122.419 89.6733 122.823 89.9141 122.847 90.1997H122.847Z" fill="black"/>
<path d="M103.372 72.208C103.985 72.6749 102.922 72.8513 102.16 73.0739C101.722 73.2027 101.286 72.7645 103.372 72.208Z" fill="black"/>
<path d="M102.919 73.6262C102.865 73.5814 102.633 73.4855 102.833 73.2944C102.974 73.16 103.122 73.0907 104.039 72.8513C104.407 72.7554 104.466 73.1663 104.214 73.2496C102.935 73.6675 103.063 73.6206 102.919 73.6269L102.919 73.6262Z" fill="black"/>
<path d="M105.299 73.9391C105.123 73.9797 105.015 73.8285 104.876 73.7431C104.847 73.7249 104.845 73.6206 104.872 73.58C105.03 73.3364 105.705 73.1747 105.649 73.6934C105.631 73.8698 105.543 73.9356 105.299 73.9391Z" fill="black"/>
<path d="M104.157 74.3821C103.673 74.3744 103.695 73.8095 104.1 73.7927C104.277 73.7857 104.526 73.9768 104.521 74.1175C104.516 74.2624 104.348 74.3856 104.157 74.3821Z" fill="black"/>
<path d="M75.6774 39.6438C75.6774 40.7701 75.5884 40.6784 76.1471 40.824C77.1859 41.0956 91.5634 94.7312 92.8612 100.258C92.9164 100.491 92.9873 100.456 93.6698 100.552C93.9454 100.592 94.1961 100.711 94.4618 100.769C94.9669 100.881 95.3135 101.169 95.5604 101.564C96.0262 102.309 95.8186 102.574 95.7121 103.429C95.4147 105.825 91.5762 105.988 90.0081 105.214C88.6159 104.528 88.8545 103.401 88.6884 103.028C88.8144 101.767 89.093 101.49 89.5626 101.016C89.8594 100.716 89.8095 100.974 79.5725 95.518C75.2864 93.2332 74.5306 92.8482 73.765 92.4163C73.4615 92.2455 73.4857 92.319 71.8654 93.2528C59.309 100.487 61.7311 99.0677 58.6243 100.916C58.2641 101.13 59.3415 101.39 59.5831 102.531C59.6707 102.946 59.6005 103.322 59.3785 104.06C58.7224 106.238 54.9066 106.411 52.9368 105.384C50.7209 104.229 51.6881 100.459 54.4582 100.507C55.0471 100.517 54.961 100.606 62.9089 66.7611C62.9142 66.7387 69.389 41.4547 69.8926 41.0018C70.7496 40.2297 69.6261 38.3061 71.1807 37.5326C71.4419 37.4024 71.7129 37.31 72.018 37.3023C72.9768 37.2771 75.5332 36.883 75.6774 38.8206C75.6842 38.9116 75.6933 39.6438 75.6774 39.6438ZM73.4864 78.3554C72.4347 78.8223 68.1644 81.0105 63.3513 83.3422C61.0018 84.4804 60.9693 84.087 62.178 84.6561C65.5446 86.2402 66.3321 86.5769 72.3743 89.8459C73.5604 90.4878 73.565 90.5606 73.7764 90.4395C77.3015 88.4298 85.3981 84.2193 85.7854 83.9841C86.0262 83.8378 86.061 84.0471 78.8016 80.7543C73.4925 78.3456 73.9847 78.5444 73.4864 78.3561V78.3554ZM86.8877 84.6687C85.6616 85.5171 74.8334 91.2186 75.2886 91.4727C86.9277 97.9722 90.9413 99.9861 90.9896 99.9658C91.2637 99.8524 87.1391 84.8213 86.8877 84.6687ZM56.6431 99.9868C56.7368 100.284 55.4102 100.704 71.7016 91.5952C72.055 91.3978 72.1841 91.584 64.7081 87.6528C59.9334 85.1419 60.2188 85.0047 60.1192 85.41C57.8859 94.4967 60.1373 85.4205 56.6431 99.9861V99.9868ZM82.3388 72.4768C81.6948 72.0624 77.0176 69.9013 74.1289 68.3249C73.4268 67.942 73.5891 67.9329 68.859 70.4853C68.8424 70.4944 64.7866 72.6231 64.6575 72.7309C64.9965 72.999 65.5929 73.1173 69.4223 74.7343C74.4438 76.8546 72.9625 76.8434 74.6846 76.0524C77.7809 74.6293 82.0421 72.7099 82.3388 72.4768ZM86.4422 82.8088C86.4377 82.792 83.7718 73.2545 83.7665 73.2398C83.6872 72.9906 84.0655 73.167 76.9534 76.5893C75.3332 77.3691 75.2494 77.3978 75.4562 77.5154C75.4721 77.5245 86.366 82.8088 86.4422 82.8088ZM71.5665 77.5007C71.1709 77.1997 67.3755 75.6646 63.2094 73.6409C62.9912 73.5352 63.235 72.8702 61.0969 81.3997C61.0614 81.5404 60.7534 82.8018 60.7466 83.0139C60.893 82.9915 71.5574 77.5161 71.5665 77.5007ZM80.1901 63.385C80.1418 63.3325 74.2014 60.4961 73.1097 59.9781C72.9451 59.9004 72.8016 59.8402 72.6189 59.9515C72.4362 60.0628 67.1052 63.0707 67.0871 63.0875C67.4842 63.2982 69.827 64.3244 73.6012 66.3089C73.9258 66.4797 73.7009 66.4867 78.5887 64.1739C79.0568 63.9527 80.0632 63.4501 80.1893 63.3857L80.1901 63.385ZM63.5537 71.8188C66.7903 69.8138 67.9931 69.258 71.756 67.4065C72.1644 67.2056 72.1146 67.3295 69.5876 66.0478C65.1165 63.7805 65.4668 63.805 65.3694 64.2103C63.5454 71.8153 63.4638 71.4772 63.5544 71.8181L63.5537 71.8188ZM73.1142 58.1322C73.3626 58.0258 78.286 55.5471 78.4845 55.3868C78.2943 55.2608 75.5446 53.9329 75.5287 53.9238C73.7039 53.0411 73.6797 52.9816 73.4457 53.1237C73.1912 53.2784 68.2626 55.6787 68.1999 55.727C68.292 55.7865 73.0183 58.0937 73.115 58.1329L73.1142 58.1322ZM83.2056 71.2833C83.1716 71.0376 81.4019 64.7108 81.3309 64.4728C81.2048 64.0507 81.7348 63.9646 75.7507 67.0565C75.1459 67.3694 74.7707 66.9228 79.9817 69.6731C83.1655 71.354 82.9866 71.3638 83.2056 71.2833ZM80.6612 62.1103C78.9753 55.9258 79.1867 56.4025 78.8832 56.5495C78.6944 56.6405 78.788 56.6006 76.6967 57.7241C74.6053 58.8476 74.4309 58.8504 74.6831 58.9869C80.6114 62.1922 80.5117 62.1838 80.662 62.111L80.6612 62.1103ZM65.9145 62.0088C66.0036 62.23 65.5453 62.3854 70.0278 59.8332C71.1912 59.171 71.4072 59.1619 71.1233 59.0163C70.5744 58.7356 71.1105 59.0324 67.3732 57.0787C67.1248 56.9485 67.2396 56.4319 65.9145 62.0088ZM76.6401 50.3587C76.4158 50.1718 76.1123 50.0339 74.7631 49.2156C73.3996 48.3882 73.3755 48.1957 72.9927 48.3931C70.1463 49.8603 70.1878 49.5978 70.3947 49.8085C70.4091 49.8232 71.8685 50.5547 73.5884 51.4465C73.8564 51.5858 73.8111 51.6054 76.6401 50.3587ZM67.7779 54.3774C67.8911 54.6763 67.5318 54.4187 71.7975 52.4685C72.3411 52.22 72.3419 52.4363 68.9738 50.5442C68.6831 50.3811 68.7579 50.1235 67.7779 54.3774ZM57.9236 101.893C57.4895 101.544 57.3279 101.761 56.2664 102.407C55.7583 102.717 54.7239 102.748 54.6364 102.094C54.5495 101.441 54.5978 101.341 54.4408 101.36C53.2449 101.509 52.7436 102.409 53.0999 102.801C54.6039 104.454 59.5665 103.211 57.9236 101.893ZM75.5415 45.8472C72.8953 44.086 72.8575 43.8298 72.5563 44.0097C70.8877 45.0051 70.7798 45.0149 70.9413 45.1199C73.5166 46.795 73.3717 46.7929 73.6261 46.6774C74.3668 46.3428 75.3007 45.9879 75.5415 45.8472ZM92.0934 103.332C93.0598 103.307 93.4637 103.033 93.6412 102.997C94.292 102.864 94.8333 102.167 94.2542 101.667C93.9688 101.42 93.5959 101.434 93.2599 101.342C93.1731 101.318 93.1036 101.372 93.1179 101.469C93.1678 101.802 92.5487 102.34 91.919 102.023C90.6816 101.399 90.6506 101.362 90.4551 101.489C90.0934 101.725 89.7174 102.267 90.024 102.624C90.5887 103.284 91.1897 103.231 92.0934 103.332ZM77.5778 50.9992C77.4132 51.0818 77.5446 51.0097 75.5121 52.1003C75.3309 52.1976 75.1233 52.283 75.3052 52.3803C78.4105 54.0281 78.1017 53.956 78.4181 54.0197C78.4151 53.8804 77.722 51.219 77.5778 50.9992ZM69.6692 48.4785C71.7379 47.4208 71.6541 47.4908 71.7462 47.4341C71.9447 47.3116 71.8103 47.2962 70.0406 46.0292C69.802 45.8584 69.8443 46.0026 69.4842 47.4684C69.0553 49.2142 69.0833 48.7774 69.6692 48.4785ZM72.887 37.9757C72.887 38.0177 71.1429 37.8273 71.0976 38.5084C71.0523 39.1895 74.144 39.1636 74.7141 38.6743C75.3324 38.1437 73.8081 37.9757 72.887 37.9757ZM76.369 46.508C76.1803 46.5857 75.9092 46.7341 75.7915 46.8041C74.5027 47.5734 74.5442 47.5223 74.7684 47.6868C77.1369 49.427 76.9436 49.3178 77.1731 49.4102C77.1648 49.1092 76.554 46.7859 76.369 46.508ZM75.9236 44.6635C75.2833 42.259 75.3603 42.2513 75.0923 42.4179C73.839 43.1963 73.8579 43.1361 74.0353 43.2782C75.8594 44.7349 75.7816 44.7202 75.9236 44.6635ZM70.3789 43.7192C70.443 43.855 70.3381 43.9348 71.4117 43.1956C71.5831 43.078 71.5227 43.057 70.8424 42.588C70.5955 42.4179 70.6159 42.672 70.3789 43.7192Z" fill="black"/>
<path d="M126.664 34.5097C124.545 31.6026 123.441 33.1181 126.073 31.2764C126.319 31.1049 126.237 30.7241 125.838 30.8053C125.696 30.834 125.611 30.8816 124.286 31.4962C124.128 31.5697 123.879 31.7384 123.87 31.5277C123.733 28.5254 123.981 27.4257 123.332 27.5076C123.038 27.5447 123.047 27.8247 123.047 28.0102C123.044 31.0636 123.1 30.9796 123.029 31.2911C122.732 31.1427 122.346 30.8179 121.489 30.4441C121.18 30.309 120.46 30.1298 120.392 30.4231C120.329 30.694 120.434 30.7059 120.707 30.8704C123.055 32.2872 122.953 32.1283 122.587 32.3334C122.119 32.5952 121.601 32.8269 121.183 33.0544C120.572 33.3876 120.936 34.0701 121.599 33.8265C121.966 33.6921 122.651 33.3519 123 33.1846C123.318 33.032 123.106 35.1418 123.516 35.5667C123.797 35.321 123.817 33.3435 123.902 32.9949C124.309 33.1342 125.823 34.5048 126.548 34.6854C126.643 34.7092 126.721 34.5867 126.665 34.509L126.664 34.5097Z" fill="black"/>
<path d="M100.089 49.8971C97.5569 51.022 97.68 51.0493 97.7185 50.7287C97.9163 49.104 98.2492 47.9175 98.0522 47.5752C97.9103 47.3267 97.5599 47.3015 97.4067 47.5381C97.1862 47.879 96.9038 50.0938 96.7725 50.6587C96.6796 51.0598 95.9782 50.0357 95.0345 49.818C94.6985 49.7403 94.392 50.2177 94.9197 50.5957C96.6645 51.8473 96.5792 51.3643 94.8661 52.1798C94.4418 52.3821 94.1292 52.681 94.3655 53.0667C94.5112 53.3047 94.8903 53.1143 95.0594 53.0499C96.4954 52.5053 96.5127 52.4486 96.5135 52.6131C96.518 54.018 96.4138 54.4212 96.6796 54.4338C96.931 54.4457 96.9476 54.2889 97.3108 52.9484C97.3531 52.793 97.3787 52.6341 97.4127 52.4773C98.3648 53.0471 98.5165 53.3257 98.7604 53.1654C98.9673 53.0296 98.7868 52.8147 98.3814 52.3247C98.0492 51.9236 97.8748 51.8851 98.0975 51.8053C98.293 51.7353 99.5395 51.1256 100.461 50.4767C100.644 50.3486 100.668 50.1449 100.531 49.9559C100.418 49.7991 100.332 49.7879 100.088 49.8964L100.089 49.8971Z" fill="black"/>
<path d="M25.0095 22.1791C23.769 22.6971 23.6384 22.9001 23.6588 22.6537C23.7585 21.4294 23.7751 21.4301 23.7396 21.4287C23.7396 20.8554 23.843 20.3626 23.3923 20.329C22.9499 20.2961 22.8849 20.7042 22.8502 21.1312C22.7196 22.7181 22.8245 22.7503 22.5225 22.6075C22.3421 22.5221 22.4032 22.4955 21.3734 22.0811C20.9793 21.9229 20.7445 22.2862 20.9929 22.5823C21.2156 22.8483 21.4044 22.9281 22.1647 23.4174C22.3489 23.5357 22.2115 23.5105 21.7502 23.7884C21.0178 24.2301 20.783 24.3344 20.6917 24.7012C20.6184 24.9931 20.8706 25.2731 21.3825 25.0246C22.6479 24.41 22.6562 24.2658 22.6705 24.6718C22.6803 24.9574 22.6539 25.2822 22.7755 25.5916C22.8238 25.7141 23.0239 25.7743 23.1386 25.6084C23.2564 25.4376 23.4618 24.4219 23.4889 24.2826C23.5312 24.067 23.5742 24.263 24.6849 24.5878C24.8185 24.627 25.0103 24.6837 25.1092 24.5038C25.3455 24.074 23.9903 23.6967 24.3896 23.437C24.9181 23.0926 24.7226 23.2949 26.2424 22.0713C26.3602 21.9768 26.4848 21.5659 25.011 22.1805L25.0095 22.1791Z" fill="black"/>
<path d="M37.5103 56.18C37.3276 56.2339 37.2514 56.2976 35.7836 57.118C35.4998 57.2769 35.6281 57.2545 35.5821 55.1776C35.567 54.5077 35.5398 54.0716 35.1509 54.066C34.704 54.0597 34.778 54.3726 34.6655 55.6354C34.7108 55.6382 34.6979 55.6354 34.6979 56.3473C34.6979 56.5552 34.7289 56.754 34.5447 56.6392C33.462 55.9623 33.1275 56.5202 33.4635 56.8471C33.7119 57.0886 34.0811 57.3161 34.6141 57.6535C34.8203 57.7837 34.5545 57.8005 34.0252 58.2044C33.1041 58.9065 32.9818 58.9912 33.0037 59.2831C33.0302 59.6303 33.3858 59.5771 33.6779 59.4042C34.824 58.7259 34.7923 58.5768 34.861 58.9359C35.0037 59.6898 35.0498 59.8781 35.2982 59.9579C35.6402 60.0678 35.6779 59.4882 35.6613 59.4343C35.5503 59.0745 35.6326 58.7189 35.6032 58.3647C35.5821 58.1134 36.2132 58.812 37.2929 58.9751C37.493 59.0052 37.5571 58.8211 37.2657 58.5712C35.8086 57.3238 35.9709 58.0812 37.7142 56.4663C37.8856 56.3081 37.6689 56.1338 37.5111 56.1807L37.5103 56.18Z" fill="black"/>
<path d="M100.61 17.9723C93.2504 5.9036 75.4324 0.954599 61.2776 4.7556C49.2882 7.9756 42.035 19.3807 43.2664 21.1545C43.4846 21.4688 43.5057 21.4653 47.7556 23.9818C50.491 25.6016 48.5204 21.4415 56.0613 15.6651C69.1289 5.6551 89.0428 11.491 95.0677 23.1068C95.8212 24.5593 96.9061 23.3721 98.6018 22.2031C102.046 19.8294 102.026 20.2928 100.611 17.9723H100.61Z" fill="black"/>
<path d="M53.2175 26.1546C52.9495 26.6124 53.1239 27.1941 53.6093 27.4783C54.6475 28.0866 55.6765 28.7047 56.7094 29.3186C58.233 30.2237 58.1084 27.6554 62.3198 24.5117C65.3775 22.229 68.8664 21.1048 72.5938 21.1706C78.2593 21.2707 82.3605 24.2457 85.8192 28.4086C87.3843 30.2923 86.553 30.5142 91.1359 27.3446C91.4952 27.0961 92.0494 26.541 91.8735 26.1595C85.5708 12.4808 62.7441 9.86281 53.2175 26.1532V26.1546Z" fill="black"/>
<path d="M62.2511 31.1773C61.8653 31.7128 61.8577 32.3988 62.4527 32.7439C67.0657 35.4151 65.4878 35.1827 68.1846 33.2017C70.9215 31.1913 74.2745 31.4741 76.7275 33.1121C79.2945 34.8264 78.8558 35.7721 80.2858 34.8026C83.45 32.6571 83.9973 32.5031 83.3873 31.6904C77.7248 24.1486 67.7573 23.5375 62.2518 31.1773H62.2511Z" fill="black"/>
</svg>
