<svg width="97" height="134" viewBox="0 0 97 134" fill="none" xmlns="http://www.w3.org/2000/svg">
<ellipse cx="32.127" cy="108.623" rx="9.16901" ry="8.55263" fill="black"/>
<path d="M48.5 2L49.5698 0.948607C49.2878 0.661639 48.9023 0.5 48.5 0.5C48.0977 0.5 47.7122 0.661639 47.4302 0.948607L48.5 2ZM48.5 2C47.4302 0.948607 47.4297 0.94902 47.4292 0.949613C47.4287 0.950052 47.428 0.950826 47.4271 0.951702C47.4254 0.953454 47.423 0.955927 47.4198 0.959116C47.4136 0.965494 47.4046 0.97474 47.3928 0.986828C47.3692 1.011 47.3346 1.04655 47.2893 1.09326C47.1988 1.18669 47.0656 1.3248 46.8927 1.50598C46.5469 1.86834 46.0418 2.40304 45.4003 3.09725C44.1174 4.48556 42.2882 6.51238 40.0948 9.07492C35.7094 14.1984 29.861 21.4717 24.0098 30.0717C12.352 47.2063 0.5 69.8698 0.5 91.375H3.5C3.5 70.8214 14.898 48.7974 26.4902 31.7592C32.264 23.2728 38.0406 16.0884 42.3739 11.0257C44.5399 8.4952 46.3436 6.49686 47.6036 5.13328C48.2336 4.45154 48.7276 3.92861 49.0629 3.57732C49.2305 3.40168 49.3585 3.26896 49.4439 3.18077C49.4866 3.13668 49.5187 3.10371 49.5398 3.08208C49.5504 3.07127 49.5582 3.06328 49.5632 3.05816C49.5657 3.0556 49.5675 3.05375 49.5686 3.05262C49.5692 3.05206 49.5695 3.05175 49.5698 3.05147C49.5699 3.05134 49.5698 3.05139 48.5 2ZM96.5 91.375C96.5 69.8698 84.648 47.2063 72.9902 30.0717C67.139 21.4717 61.2906 14.1984 56.9052 9.07492C54.7118 6.51238 52.8826 4.48556 51.5997 3.09725C50.9582 2.40304 50.4531 1.86834 50.1073 1.50598C49.9344 1.3248 49.8012 1.18669 49.7107 1.09326C49.6654 1.04655 49.6308 1.011 49.6072 0.986828C49.5954 0.97474 49.5864 0.965494 49.5802 0.959116C49.577 0.955927 49.5746 0.953454 49.5729 0.951702C49.572 0.950826 49.5713 0.950052 49.5708 0.949613C49.5703 0.94902 49.5698 0.948607 48.5 2C47.4302 3.05139 47.4301 3.05134 47.4302 3.05147C47.4305 3.05175 47.4308 3.05206 47.4314 3.05262C47.4325 3.05375 47.4343 3.0556 47.4368 3.05816C47.4418 3.06328 47.4496 3.07127 47.4602 3.08208C47.4813 3.10371 47.5134 3.13668 47.5561 3.18077C47.6415 3.26896 47.7695 3.40168 47.9371 3.57732C48.2724 3.92861 48.7664 4.45154 49.3964 5.13328C50.6564 6.49686 52.4601 8.4952 54.6261 11.0257C58.9594 16.0884 64.736 23.2728 70.5098 31.7592C82.102 48.7974 93.5 70.8214 93.5 91.375H96.5ZM93.5 91.375C93.5 112.799 73.5495 130.5 48.5 130.5V133.5C74.813 133.5 96.5 114.824 96.5 91.375H93.5ZM48.5 130.5C23.4505 130.5 3.5 112.799 3.5 91.375H0.5C0.5 114.824 22.187 133.5 48.5 133.5V130.5Z" fill="black"/>
</svg>
