<svg width="128" height="117" viewBox="0 0 128 117" fill="none" xmlns="http://www.w3.org/2000/svg">
<path d="M43.0234 64.2042C10.7169 64.2042 2.26219 24.0187 2.00623 2.98545C1.99951 2.43321 2.44789 2 3.00017 2H18.4095" stroke="#222222" stroke-width="3" stroke-linecap="round"/>
<ellipse cx="40.8254" cy="70.8688" rx="6.59302" ry="6.66474" fill="#222222"/>
<path d="M41.5581 64.2042C69.2494 64.2042 76.4963 24.0187 76.7157 2.98547C76.7215 2.43322 76.2732 2 75.7209 2H62.6558" stroke="#222222" stroke-width="3" stroke-linecap="round"/>
<ellipse cx="115.546" cy="44.21" rx="8.05814" ry="8.14579" fill="#222222"/>
<path d="M126.5 44.21C126.5 50.3497 121.58 55.299 115.546 55.299C109.512 55.299 104.593 50.3497 104.593 44.21C104.593 38.0704 109.512 33.1211 115.546 33.1211C121.58 33.1211 126.5 38.0704 126.5 44.21Z" stroke="#222222" stroke-width="3"/>
<path d="M116.279 56.7988V78.5599C116.279 98.4422 100.161 114.56 80.2791 114.56H77.5581C57.6759 114.56 41.5581 98.4422 41.5581 78.5599V65.0504" stroke="#222222" stroke-width="3" stroke-linecap="round"/>
</svg>
