<svg width="115" height="112" viewBox="0 0 115 112" fill="none" xmlns="http://www.w3.org/2000/svg">
<path d="M58.0891 108.668L103.521 57.4474C106.582 53.9968 108.112 52.2714 109.196 50.2655C110.28 48.2595 110.879 46.043 112.077 41.61L112.699 39.3071C112.849 38.7518 112.925 38.4739 112.962 38.1897C113 37.9055 113 37.6181 113 37.0432V28.5601C113 27.3524 113 26.7486 112.839 26.1739C112.678 25.5991 112.363 25.0813 111.735 24.0457L106.902 16.0879C106.622 15.6254 106.481 15.3941 106.314 15.1821C106.146 14.97 105.953 14.7792 105.567 14.3979L100.584 9.47435C100.133 9.02841 99.9072 8.80535 99.6526 8.61708C99.3979 8.4288 99.1177 8.27779 98.5573 7.97577L88.7586 2.69449C88.466 2.53683 88.3196 2.45791 88.1699 2.39091C87.695 2.17836 87.186 2.0501 86.6661 2.01201C86.5022 2 86.3355 2 86.0022 2C82.6624 2 80.9926 2.00001 79.4772 2.26136C74.6251 3.09818 70.3426 5.88847 67.6529 9.9656C66.8128 11.2389 66.155 12.7556 64.8394 15.7888L64.16 17.3553L62.2552 21.496C60.663 24.9573 59.8669 26.6879 58.5009 26.7422C57.1349 26.7966 56.2006 25.1348 54.3319 21.8112L53.06 19.5489L50.6539 15.7449C47.2675 10.3911 45.5744 7.71425 43.2134 5.84731C41.6492 4.6104 39.8845 3.64393 37.9939 2.98881C35.1404 2 31.9457 2 25.5564 2C24.5802 2 24.0921 2 23.6252 2.10048C23.3145 2.16734 23.012 2.26698 22.7229 2.39769C22.2883 2.59413 21.8978 2.88349 21.1169 3.46222L14.7149 8.20669C14.4625 8.39369 14.3364 8.48719 14.2173 8.5892C14.0983 8.69122 13.9868 8.80141 13.7638 9.02178L8.56896 14.1548C8.06058 14.6572 7.80639 14.9083 7.59712 15.1952C7.38784 15.4822 7.22708 15.7999 6.90555 16.4353L2.93749 24.2771C2.47087 25.1992 2.23755 25.6603 2.11877 26.1575C2 26.6546 2 27.1701 2 28.2011V37.4196C2 37.8069 2 38.0005 2.01722 38.1931C2.03444 38.3858 2.06879 38.5764 2.13748 38.9577L2.28426 39.7723C3.2462 45.1109 3.72716 47.7802 4.89574 50.1963C6.06432 52.6124 7.86424 54.6589 11.464 58.7519L31.97 82.0669L54.7249 108.639C55.499 109.544 55.8862 109.996 56.3951 110C56.9041 110.004 57.2991 109.559 58.0891 108.668Z" stroke="black" stroke-width="3"/>
</svg>
