<svg width="171" height="83" viewBox="0 0 171 83" fill="none" xmlns="http://www.w3.org/2000/svg">
<path d="M31.832 2H139.159C140.263 2 141.159 2.89543 141.159 4V79C141.159 80.1046 140.263 81 139.159 81H31.832C30.7275 81 29.832 80.1046 29.832 79V4C29.832 2.89543 30.7275 2 31.832 2Z" stroke="#222222" stroke-width="4" stroke-linecap="round" stroke-linejoin="round"/>
<path d="M29.8321 25.7L4.54611 18.5228C3.26924 18.1603 2 19.1194 2 20.4467V40.3356C2 41.0554 2.38672 41.7196 3.01263 42.0749L29.8321 57.3" stroke="#222222" stroke-width="4" stroke-linecap="round" stroke-linejoin="round"/>
<path d="M141.157 25.7L166.443 18.5228C167.72 18.1603 168.989 19.1194 168.989 20.4467V40.3356C168.989 41.0554 168.603 41.7196 167.977 42.0749L141.157 57.3" stroke="#222222" stroke-width="4" stroke-linecap="round" stroke-linejoin="round"/>
<path d="M85.4941 25.6992L85.4941 57.2999" stroke="#222222" stroke-width="4" stroke-linecap="round" stroke-linejoin="round"/>
<path d="M104.049 41.4993L66.9388 41.4993" stroke="#222222" stroke-width="4" stroke-linecap="round" stroke-linejoin="round"/>
</svg>
