<svg width="161" height="158" viewBox="0 0 161 158" fill="none" xmlns="http://www.w3.org/2000/svg">
<path d="M73.7917 46.0833L87.2083 65.8333L73.7917 85.5833H53.6667L40.25 65.8333L53.6667 46.0833H73.7917Z" stroke="black" stroke-width="2" stroke-linecap="round" stroke-linejoin="round"/>
<path d="M107.333 26.3333L120.75 46.0833L107.333 65.8333H87.2082L73.7915 46.0833L87.2082 26.3333H107.333Z" stroke="black" stroke-width="2" stroke-linecap="round" stroke-linejoin="round"/>
<path d="M107.333 105.333L120.75 125.083" stroke="black" stroke-width="2" stroke-linecap="round" stroke-linejoin="round"/>
<path d="M33.5415 26.3333L53.6665 46.0833" stroke="black" stroke-width="2" stroke-linecap="round" stroke-linejoin="round"/>
<path d="M53.6667 85.5833L40.25 98.7499" stroke="black" stroke-width="2" stroke-linecap="round" stroke-linejoin="round"/>
<path d="M87.2082 105.333L73.7915 118.5" stroke="black" stroke-width="2" stroke-linecap="round" stroke-linejoin="round"/>
<path d="M40.2502 65.8333H26.8335" stroke="black" stroke-width="2" stroke-linecap="round" stroke-linejoin="round"/>
<path d="M120.75 85.5833H140.875" stroke="black" stroke-width="2" stroke-linecap="round" stroke-linejoin="round"/>
<path d="M107.333 65.8333L120.75 85.5833L107.333 105.333H87.2082L73.7915 85.5833L87.2082 65.8333H107.333Z" stroke="black" stroke-width="2" stroke-linecap="round" stroke-linejoin="round"/>
<ellipse cx="60.3748" cy="131.667" rx="6.70833" ry="6.58333" fill="black"/>
<ellipse cx="26.8333" cy="111.917" rx="6.70833" ry="6.58333" fill="black"/>
<ellipse cx="140.875" cy="46.0833" rx="6.70833" ry="6.58333" fill="black"/>
</svg>
